<svg width="632" height="632" viewBox="0 0 632 632" fill="none" xmlns="http://www.w3.org/2000/svg">
<path d="M543.899 366.257V419.863C543.899 424.523 542.048 428.992 538.753 432.286C535.458 435.581 530.99 437.433 526.33 437.433H334.113C329.456 437.429 324.99 435.577 321.698 432.282C318.406 428.987 316.556 424.52 316.556 419.863V374.561L292.616 349.42L526.279 348.7C528.59 348.691 530.88 349.139 533.017 350.018C535.155 350.897 537.098 352.188 538.735 353.82C540.372 355.451 541.671 357.389 542.557 359.523C543.443 361.658 543.899 363.946 543.899 366.257Z" fill="#F5F5F5"/>
<path d="M344.882 381.172L519.314 380.363L519.288 375.004L344.869 375.813L344.882 381.172Z" fill="#E6E6E6"/>
<path d="M344.882 398.805L519.314 398.008L519.288 392.649L344.869 393.445L344.882 398.805Z" fill="#E6E6E6"/>
<path d="M413.862 410.315L344.849 410.652L344.875 416.011L413.888 415.674L413.862 410.315Z" fill="#E6E6E6"/>
<path d="M203.238 58.8771H316.606C317.934 58.8771 319.249 59.1387 320.476 59.6469C321.703 60.155 322.818 60.8999 323.757 61.8389C324.696 62.7779 325.441 63.8926 325.949 65.1194C326.457 66.3463 326.718 67.6612 326.718 68.9891V124.491C326.718 127.173 325.653 129.745 323.757 131.642C321.86 133.538 319.288 134.603 316.606 134.603H220.403C217.722 134.603 215.15 133.538 213.253 131.642C211.357 129.745 210.291 127.173 210.291 124.491V65.8797L203.238 58.8771Z" fill="#F5F5F5"/>
<path d="M345.666 159.82V179.741C345.666 181.082 346.199 182.368 347.147 183.316C348.095 184.264 349.381 184.797 350.722 184.797H462.03C463.371 184.797 464.657 184.264 465.605 183.316C466.553 182.368 467.086 181.082 467.086 179.741V168.858L479.865 155.181L350.735 154.764C350.07 154.763 349.411 154.892 348.796 155.145C348.181 155.399 347.622 155.771 347.151 156.241C346.681 156.71 346.307 157.268 346.052 157.882C345.797 158.497 345.666 159.155 345.666 159.82Z" fill="#F0F0F0"/>
<path d="M270.635 120.194V155.75C270.637 157.28 270.337 158.795 269.752 160.209C269.168 161.623 268.311 162.908 267.23 163.99C266.149 165.072 264.865 165.931 263.451 166.517C262.038 167.103 260.523 167.404 258.993 167.404H131.456C129.926 167.404 128.411 167.103 126.998 166.517C125.585 165.931 124.301 165.072 123.22 163.99C122.139 162.908 121.281 161.623 120.697 160.209C120.113 158.795 119.813 157.28 119.814 155.75V125.717L103.977 109.033L258.956 108.552C260.488 108.547 262.005 108.845 263.422 109.428C264.839 110.01 266.127 110.867 267.212 111.949C268.297 113.03 269.158 114.315 269.745 115.73C270.333 117.145 270.635 118.662 270.635 120.194Z" fill="#E0E0E0"/>
<path d="M138.648 130.091L254.33 129.56L254.317 126.008L138.636 126.539L138.648 130.091Z" fill="#F0F0F0"/>
<path d="M138.648 141.796L254.33 141.252L254.317 137.7L138.636 138.231L138.648 141.796Z" fill="#F0F0F0"/>
<path d="M184.387 149.425L138.618 149.648L138.636 153.2L184.404 152.976L184.387 149.425Z" fill="#F0F0F0"/>
<path d="M82.7285 237.531V291.15C82.7285 293.456 83.1831 295.74 84.0662 297.871C84.9493 300.002 86.2437 301.938 87.8753 303.569C89.507 305.199 91.4439 306.492 93.5755 307.374C95.7071 308.255 97.9915 308.708 100.298 308.707H292.515C294.821 308.708 297.106 308.255 299.237 307.374C301.369 306.492 303.306 305.199 304.937 303.569C306.569 301.938 307.863 300.002 308.747 297.871C309.63 295.74 310.084 293.456 310.084 291.15V245.848L334.012 220.707L100.349 219.936C98.035 219.929 95.7429 220.38 93.6037 221.261C91.4646 222.143 89.5206 223.438 87.8835 225.073C86.2463 226.708 84.9481 228.65 84.0635 230.788C83.1789 232.926 82.7252 235.217 82.7285 237.531Z" fill="#F0F0F0"/>
<path d="M281.745 252.446L107.313 251.65L107.339 246.29L281.758 247.087L281.745 252.446Z" fill="#E6E6E6"/>
<path d="M281.745 270.092L107.313 269.283L107.339 263.923L281.758 264.732L281.745 270.092Z" fill="#E6E6E6"/>
<path d="M212.736 281.567L212.71 286.926L281.724 287.263L281.75 281.904L212.736 281.567Z" fill="#E6E6E6"/>
<path d="M460.083 111.198C465.372 99.4388 460.128 85.6185 448.369 80.329C436.61 75.0395 422.79 80.2838 417.5 92.0425C412.211 103.801 417.455 117.622 429.214 122.911C440.973 128.201 454.793 122.956 460.083 111.198Z" fill="#F5F5F5"/>
<path d="M430.733 95.7353C431.605 95.6595 432.414 96.6328 432.515 97.9094C432.616 99.1861 431.997 100.286 431.112 100.362C430.227 100.437 429.418 99.4515 429.317 98.1749C429.216 96.8982 429.848 95.7985 430.733 95.7353Z" fill="#E0E0E0"/>
<path d="M432.781 89.8199C431.375 89.9937 429.985 90.2769 428.622 90.6667C427.332 91.2562 426.09 91.945 424.906 92.7271C425.765 91.4959 426.979 90.5572 428.387 90.0374C429.795 89.5177 431.329 89.4417 432.781 89.8199Z" fill="#E0E0E0"/>
<path d="M445.572 95.432C444.675 95.432 443.917 96.3926 443.866 97.6819C443.815 98.9712 444.485 100.02 445.383 100.058C446.28 100.096 447.026 99.085 447.077 97.8083C447.127 96.5317 446.457 95.4573 445.572 95.432Z" fill="#E0E0E0"/>
<path d="M443.271 89.605C444.7 89.1625 446.23 89.1676 447.655 89.6194C449.081 90.0713 450.334 90.9484 451.247 92.133C450.038 91.3927 448.77 90.7543 447.455 90.2243C446.078 89.9138 444.68 89.7067 443.271 89.605Z" fill="#E0E0E0"/>
<path d="M450.299 101.373C450.309 101.8 450.254 102.226 450.135 102.637C449.838 103.76 449.359 104.827 448.719 105.797C447.804 107.256 446.594 108.509 445.168 109.475C443.425 110.709 441.368 111.423 439.236 111.535C437.104 111.647 434.984 111.152 433.122 110.107C431.598 109.29 430.26 108.166 429.191 106.808C428.476 105.901 427.913 104.886 427.522 103.8C427.346 103.401 427.247 102.972 427.231 102.536C427.838 103.941 428.624 105.263 429.57 106.467C430.617 107.726 431.907 108.762 433.362 109.513C435.129 110.47 437.126 110.921 439.133 110.817C441.141 110.712 443.08 110.055 444.738 108.919C446.121 108.021 447.311 106.856 448.239 105.493C449.097 104.213 449.79 102.828 450.299 101.373Z" fill="#E0E0E0"/>
<path d="M117.994 364.032H121.344L128.725 354.198V347.739C128.725 347.739 133.946 347.436 133.339 355.892C132.732 364.348 133.339 362.212 133.339 362.212C133.339 362.212 144.424 362.212 145.347 363.172C146.017 363.842 146.32 374.384 146.434 380.097C146.49 381.502 146.067 382.884 145.236 384.018C144.405 385.152 143.215 385.971 141.858 386.342C141.444 386.439 141.02 386.49 140.594 386.493C137.965 386.43 123.872 384.256 123.872 384.256H117.994V364.032Z" fill="#F0F0F0"/>
<path d="M108.324 362.224L110.397 384.332H116.186V362.667L108.324 362.224Z" fill="#F0F0F0"/>
<path d="M582.704 171.803C581.907 170.949 580.807 170.441 579.641 170.386C578.474 170.332 577.332 170.736 576.459 171.512C575.592 172.206 574.888 173.082 574.397 174.078C573.905 175.074 573.639 176.166 573.615 177.276C573.41 176.164 572.964 175.111 572.309 174.19C571.654 173.268 570.806 172.501 569.823 171.942C568.847 171.284 567.653 171.032 566.495 171.239C565.336 171.447 564.304 172.098 563.617 173.054C562.876 174.366 562.651 175.908 562.985 177.377C563.205 178.86 563.825 180.254 564.78 181.409C568.281 185.125 570.089 185.72 574.424 188.235C578.368 185.176 579.645 184.443 582.602 180.234C583.4 178.963 583.837 177.499 583.866 175.999C584.008 174.505 583.594 173.011 582.704 171.803Z" fill="#F0F0F0"/>
<path d="M374.422 512.843L242.865 512.223C239.102 512.208 235.38 511.452 231.909 509.998C228.439 508.544 225.29 506.421 222.64 503.749C219.991 501.078 217.894 497.91 216.469 494.428C215.044 490.946 214.32 487.217 214.336 483.455L215.739 153.639C215.783 146.045 218.838 138.778 224.234 133.434C229.63 128.09 236.926 125.106 244.521 125.136L376.078 125.743C383.676 125.779 390.95 128.832 396.299 134.228C401.648 139.625 404.636 146.925 404.606 154.524L403.216 484.302C403.179 491.904 400.125 499.18 394.726 504.532C389.327 509.884 382.024 512.873 374.422 512.843Z" fill="#263238"/>
<path d="M375.888 137.093L350.381 136.98C349.548 136.993 348.727 137.17 347.964 137.502C347.2 137.833 346.51 138.312 345.932 138.911C345.354 139.51 344.9 140.217 344.596 140.992C344.293 141.767 344.145 142.594 344.162 143.426V148.052C344.178 148.884 344.031 149.712 343.727 150.486C343.423 151.261 342.969 151.968 342.391 152.567C341.814 153.166 341.123 153.645 340.36 153.977C339.596 154.308 338.775 154.486 337.943 154.499L288.192 154.271C287.358 154.252 286.537 154.067 285.775 153.729C285.014 153.391 284.326 152.905 283.753 152.3C283.18 151.695 282.732 150.982 282.435 150.204C282.138 149.425 281.998 148.595 282.023 147.762V143.135C282.049 142.302 281.909 141.472 281.612 140.693C281.315 139.914 280.867 139.202 280.294 138.597C279.721 137.992 279.033 137.506 278.271 137.168C277.51 136.83 276.688 136.645 275.855 136.626H266.881L244.596 136.512C241.96 136.5 239.348 137.008 236.908 138.006C234.469 139.004 232.249 140.473 230.377 142.328C228.505 144.184 227.017 146.39 225.997 148.821C224.978 151.252 224.447 153.86 224.436 156.496L223.07 478.411C223.05 483.734 225.144 488.847 228.891 492.627C232.638 496.407 237.732 498.545 243.054 498.572L374.346 499.179C376.982 499.191 379.594 498.683 382.034 497.685C384.474 496.687 386.693 495.218 388.565 493.362C390.437 491.507 391.926 489.301 392.945 486.87C393.964 484.439 394.495 481.831 394.507 479.195L395.872 157.279C395.885 154.642 395.379 152.027 394.382 149.586C393.385 147.144 391.916 144.922 390.061 143.048C388.205 141.173 385.998 139.683 383.567 138.661C381.135 137.639 378.526 137.107 375.888 137.093Z" fill="white"/>
<path d="M303.726 458.529C303.726 459.074 303.564 459.606 303.261 460.059C302.959 460.513 302.528 460.866 302.025 461.074C301.521 461.283 300.967 461.337 300.433 461.231C299.898 461.125 299.407 460.862 299.022 460.477C298.637 460.092 298.374 459.601 298.268 459.066C298.161 458.532 298.216 457.978 298.425 457.474C298.633 456.971 298.986 456.54 299.439 456.237C299.893 455.935 300.425 455.773 300.97 455.773C301.7 455.776 302.399 456.068 302.915 456.584C303.431 457.1 303.723 457.799 303.726 458.529Z" fill="#455A64"/>
<path d="M314.193 458.529C314.193 459.074 314.031 459.606 313.728 460.059C313.426 460.513 312.995 460.866 312.492 461.074C311.988 461.283 311.434 461.337 310.9 461.231C310.365 461.125 309.874 460.862 309.489 460.477C309.103 460.092 308.841 459.601 308.735 459.066C308.628 458.532 308.683 457.978 308.891 457.474C309.1 456.971 309.453 456.54 309.906 456.237C310.359 455.935 310.892 455.773 311.437 455.773C312.167 455.776 312.866 456.068 313.382 456.584C313.898 457.1 314.189 457.799 314.193 458.529Z" fill="#455A64"/>
<path d="M324.659 458.529C324.659 459.074 324.497 459.606 324.194 460.059C323.891 460.513 323.461 460.866 322.957 461.074C322.454 461.283 321.9 461.337 321.365 461.231C320.831 461.125 320.34 460.862 319.955 460.477C319.569 460.092 319.307 459.601 319.2 459.066C319.094 458.532 319.149 457.978 319.357 457.474C319.566 456.971 319.919 456.54 320.372 456.237C320.825 455.935 321.358 455.773 321.903 455.773C322.633 455.776 323.332 456.068 323.848 456.584C324.364 457.1 324.655 457.799 324.659 458.529Z" fill="#455A64"/>
<path d="M248.894 226.901C248.894 226.901 248.894 226.673 248.894 226.205C248.99 224.372 249.638 222.609 250.752 221.149C251.675 219.893 252.895 218.885 254.304 218.217C256.101 217.418 258.071 217.092 260.03 217.269H283.945L385.065 217.471H385.81L385.292 218.015L372.336 231.641L372.425 231.426V253.988C372.515 255.492 372.405 257.001 372.096 258.475C371.708 259.952 370.976 261.317 369.96 262.457C368.964 263.594 367.718 264.485 366.319 265.061C364.929 265.608 363.44 265.862 361.946 265.807H320.689L265.44 265.693H259.625C257.764 265.835 255.898 265.5 254.203 264.719C252.661 263.974 251.344 262.835 250.385 261.416C249.426 259.998 248.859 258.351 248.742 256.643C248.742 250.323 248.742 245.001 248.742 240.59C248.742 236.178 248.742 232.791 248.805 230.478C248.805 229.327 248.805 228.455 248.805 227.836C248.805 227.217 248.805 226.939 248.805 226.939C248.805 226.939 248.805 227.242 248.805 227.836C248.805 228.43 248.805 229.327 248.805 230.478C248.805 232.816 248.805 236.229 248.805 240.59C248.805 244.951 248.805 250.386 248.894 256.617C249.015 258.256 249.568 259.834 250.496 261.19C251.424 262.547 252.694 263.633 254.177 264.34C255.814 265.089 257.617 265.402 259.41 265.25H265.44L320.752 265.187H353.414H361.984C363.391 265.245 364.794 265.008 366.105 264.492C367.412 263.953 368.579 263.123 369.517 262.065C370.46 261 371.136 259.727 371.489 258.349C371.787 256.929 371.894 255.475 371.805 254.026V231.312L371.894 231.223L384.862 217.598L385.103 218.141L283.983 217.711L266.994 217.623H260.055C258.141 217.434 256.21 217.734 254.443 218.495C253.056 219.135 251.849 220.108 250.929 221.326C250.247 222.216 249.726 223.216 249.387 224.284C249.142 225.139 248.977 226.015 248.894 226.901Z" fill="#455A64"/>
<path d="M356.726 234.99L262.217 234.548L262.229 231.641L356.726 232.083V234.99Z" fill="#455A64"/>
<path d="M356.726 244.546L262.217 244.104L262.229 241.196L356.726 241.639V244.546Z" fill="#455A64"/>
<path d="M319.325 250.76L319.311 253.668L356.699 253.85L356.713 250.943L319.325 250.76Z" fill="#455A64"/>
<path d="M377.38 290.91V319.982C377.38 322.504 376.379 324.923 374.597 326.707C372.814 328.492 370.397 329.496 367.875 329.499H263.721C261.197 329.499 258.776 328.497 256.991 326.712C255.206 324.927 254.203 322.506 254.203 319.982V295.422L241.247 281.796L367.824 281.404C369.077 281.398 370.318 281.639 371.477 282.113C372.636 282.588 373.69 283.287 374.578 284.17C375.466 285.054 376.171 286.104 376.652 287.26C377.132 288.417 377.38 289.657 377.38 290.91Z" fill="#F18A31"/>
<path d="M269.56 298.999L364.07 298.557L364.057 295.65L269.548 296.092L269.56 298.999Z" fill="white"/>
<path d="M269.56 308.555L364.07 308.113L364.057 305.218L269.548 305.648L269.56 308.555Z" fill="white"/>
<path d="M306.917 314.787L269.528 314.97L269.543 317.877L306.931 317.694L306.917 314.787Z" fill="white"/>
<path d="M320.69 179.64C321.606 179.24 322.383 178.577 322.923 177.736C323.463 176.895 323.742 175.912 323.723 174.912C323.756 174.263 323.657 173.614 323.432 173.005C323.207 172.395 322.86 171.838 322.412 171.367C321.965 170.896 321.426 170.521 320.829 170.264C320.232 170.008 319.589 169.876 318.939 169.876C318.289 169.876 317.646 170.008 317.049 170.264C316.452 170.521 315.913 170.896 315.466 171.367C315.018 171.838 314.671 172.395 314.446 173.005C314.22 173.614 314.121 174.263 314.155 174.912C314.13 175.92 314.406 176.912 314.949 177.761C315.492 178.61 316.276 179.277 317.201 179.678C309.832 180.79 310.16 188.804 310.16 188.804L327.591 188.879C327.591 188.879 327.995 180.752 320.69 179.64Z" fill="#F18A31"/>
<path opacity="0.5" d="M320.69 179.64C321.606 179.24 322.383 178.577 322.923 177.736C323.463 176.895 323.742 175.912 323.723 174.912C323.756 174.263 323.657 173.614 323.432 173.005C323.207 172.395 322.86 171.838 322.412 171.367C321.965 170.896 321.426 170.521 320.829 170.264C320.232 170.008 319.589 169.876 318.939 169.876C318.289 169.876 317.646 170.008 317.049 170.264C316.452 170.521 315.913 170.896 315.466 171.367C315.018 171.838 314.671 172.395 314.446 173.005C314.22 173.614 314.121 174.263 314.155 174.912C314.13 175.92 314.406 176.912 314.949 177.761C315.492 178.61 316.276 179.277 317.201 179.678C309.832 180.79 310.16 188.804 310.16 188.804L327.591 188.879C327.591 188.879 327.995 180.752 320.69 179.64Z" fill="white"/>
<path d="M311.121 179.64C312.034 179.234 312.808 178.57 313.35 177.73C313.891 176.891 314.175 175.911 314.167 174.912C314.215 174.254 314.127 173.593 313.908 172.97C313.689 172.347 313.344 171.776 312.894 171.293C312.445 170.81 311.9 170.424 311.295 170.161C310.69 169.897 310.037 169.761 309.377 169.761C308.717 169.761 308.064 169.897 307.459 170.161C306.853 170.424 306.309 170.81 305.86 171.293C305.41 171.776 305.065 172.347 304.846 172.97C304.627 173.593 304.538 174.254 304.586 174.912C304.561 175.92 304.838 176.912 305.381 177.761C305.924 178.61 306.708 179.277 307.633 179.678C300.263 180.79 300.592 188.804 300.592 188.804L318.023 188.879C318.023 188.879 318.427 180.752 311.121 179.64Z" fill="#F18A31"/>
<path d="M337.774 192.42L290.918 192.207L290.892 198.022L337.748 198.234L337.774 192.42Z" fill="#F18A31"/>
<path opacity="0.3" d="M337.774 192.42L290.918 192.207L290.892 198.022L337.748 198.234L337.774 192.42Z" fill="white"/>
<path d="M251.08 357.105C251.058 356.878 251.058 356.65 251.08 356.423C251.157 355.74 251.376 355.081 251.725 354.489C252.304 353.508 253.194 352.747 254.253 352.327C255.717 351.928 257.242 351.795 258.753 351.935H287.736L385.33 352.138H386.076L385.52 352.656L372.753 366.358L372.842 366.13V375.294C372.842 375.977 372.842 376.558 372.842 377.317C372.789 378.382 372.42 379.408 371.78 380.261C371.14 381.115 370.26 381.758 369.252 382.107C368.589 382.332 367.891 382.435 367.192 382.411H353.578H324.114L274.288 382.309H257.236C256.505 382.349 255.771 382.307 255.049 382.183C254.032 381.962 253.103 381.442 252.382 380.69C251.662 379.938 251.182 378.988 251.005 377.961C250.93 377.336 250.905 376.707 250.929 376.078C250.929 373.664 250.929 371.464 250.929 369.48C250.929 365.523 250.929 362.452 250.992 360.328C250.992 359.305 250.992 358.521 250.992 357.952C250.992 357.383 250.992 357.143 250.992 357.143C250.992 357.143 250.992 357.421 250.992 357.952C250.992 358.483 250.992 359.305 250.992 360.328C250.992 362.452 250.992 365.523 251.055 369.48C251.055 371.464 251.055 373.664 251.055 376.078C251.034 376.686 251.063 377.295 251.144 377.898C251.31 378.857 251.76 379.745 252.436 380.446C253.112 381.147 253.983 381.628 254.936 381.829C255.634 381.934 256.341 381.968 257.047 381.93H264.176H274.288L324.165 381.854H367.229C367.851 381.877 368.472 381.787 369.062 381.589C370.248 381.173 371.22 380.305 371.767 379.175C372.038 378.613 372.192 378.003 372.222 377.38C372.222 376.748 372.222 376.053 372.222 375.395V366.105L372.311 366.016L385.102 352.34L385.33 352.883L287.749 352.466L258.766 352.277C257.283 352.114 255.784 352.225 254.342 352.605C253.523 352.929 252.804 353.461 252.254 354.148C251.704 354.836 251.343 355.654 251.207 356.524C251.175 356.72 251.133 356.914 251.08 357.105Z" fill="#455A64"/>
<path d="M360.96 364.765L266.451 364.335L266.464 361.428L360.973 361.871L360.96 364.765Z" fill="#455A64"/>
<path d="M322.627 371.021L322.613 373.928L360.963 374.116L360.977 371.209L322.627 371.021Z" fill="#455A64"/>
<path d="M374.055 408.955V428.863C374.055 430.203 373.523 431.49 372.574 432.438C371.626 433.386 370.34 433.919 368.999 433.919H257.691C256.351 433.919 255.065 433.386 254.116 432.438C253.168 431.49 252.635 430.203 252.635 428.863V417.979L239.856 404.303L368.999 403.899C370.34 403.899 371.626 404.431 372.574 405.379C373.523 406.328 374.055 407.614 374.055 408.955Z" fill="#F18A31"/>
<path d="M264.188 416.614L358.698 416.185L358.685 413.277L264.176 413.72L264.188 416.614Z" fill="white"/>
<path d="M264.188 425.968L358.698 425.526L358.685 422.631L264.176 423.061L264.188 425.968Z" fill="white"/>
<path d="M526.392 170.299C534.581 170.299 541.219 163.661 541.219 155.472C541.219 147.283 534.581 140.645 526.392 140.645C518.204 140.645 511.565 147.283 511.565 155.472C511.565 163.661 518.204 170.299 526.392 170.299Z" fill="#F18A31"/>
<path opacity="0.5" d="M526.392 170.299C534.581 170.299 541.219 163.661 541.219 155.472C541.219 147.283 534.581 140.645 526.392 140.645C518.204 140.645 511.565 147.283 511.565 155.472C511.565 163.661 518.204 170.299 526.392 170.299Z" fill="white"/>
<path d="M521.476 151.225C522.032 151.225 522.537 151.819 522.588 152.628C522.639 153.437 522.221 154.132 521.653 154.157C521.084 154.183 520.591 153.563 520.54 152.754C520.49 151.945 520.907 151.25 521.476 151.225Z" fill="#263238"/>
<path d="M522.853 147.496C522.853 147.711 521.589 147.648 520.325 148.128C519.061 148.608 518.038 149.392 517.886 149.24C517.734 149.089 518.505 147.976 520.073 147.42C521.64 146.864 522.917 147.307 522.853 147.496Z" fill="#263238"/>
<path d="M533.598 153.538C533.433 153.664 532.637 152.805 531.36 152.679C530.084 152.552 529.123 153.197 528.997 153.045C528.87 152.893 529.098 152.679 529.515 152.388C530.091 152.026 530.772 151.866 531.449 151.933C532.124 152.006 532.753 152.31 533.231 152.792C533.585 153.172 533.674 153.475 533.598 153.538Z" fill="#263238"/>
<path d="M534.874 151.061C534.76 151.238 533.61 150.618 531.954 150.568C530.298 150.517 529.097 151.023 528.996 150.82C529.377 150.428 529.847 150.132 530.366 149.959C530.885 149.785 531.438 149.738 531.979 149.822C533.825 149.885 535 150.922 534.874 151.061Z" fill="#263238"/>
<path d="M533.824 155.181C533.832 156.206 533.503 157.205 532.889 158.025C532.243 159.107 531.335 160.008 530.25 160.646C529.164 161.285 527.935 161.64 526.676 161.679C525.417 161.718 524.169 161.44 523.046 160.87C521.923 160.3 520.961 159.456 520.249 158.417C519.576 157.643 519.188 156.662 519.149 155.636C519.584 156.52 520.092 157.365 520.666 158.164C521.371 159.066 522.278 159.789 523.314 160.275C524.351 160.76 525.487 160.995 526.63 160.959C527.774 160.923 528.894 160.618 529.898 160.069C530.901 159.52 531.762 158.742 532.409 157.798C532.941 156.96 533.414 156.085 533.824 155.181Z" fill="#263238"/>
<path d="M111.51 417.739C111.383 421.862 110.037 425.854 107.642 429.211C105.246 432.568 101.91 435.14 98.0531 436.601C94.1965 438.062 89.9933 438.347 85.9748 437.42C81.9562 436.493 78.3028 434.395 75.4763 431.392C72.6498 428.389 70.7771 424.615 70.0949 420.548C69.4128 416.481 69.9518 412.302 71.6438 408.541C73.3359 404.78 76.105 401.605 79.6011 399.418C83.0973 397.23 87.1635 396.128 91.2858 396.251C94.025 396.333 96.7213 396.954 99.2205 398.078C101.72 399.203 103.973 400.809 105.851 402.804C107.729 404.8 109.196 407.146 110.167 409.709C111.138 412.271 111.594 415 111.51 417.739Z" fill="#F18A31"/>
<path opacity="0.5" d="M111.51 417.739C111.383 421.862 110.037 425.854 107.642 429.211C105.246 432.568 101.91 435.14 98.0531 436.601C94.1965 438.062 89.9933 438.347 85.9748 437.42C81.9562 436.493 78.3028 434.395 75.4763 431.392C72.6498 428.389 70.7771 424.615 70.0949 420.548C69.4128 416.481 69.9518 412.302 71.6438 408.541C73.3359 404.78 76.105 401.605 79.6011 399.418C83.0973 397.23 87.1635 396.128 91.2858 396.251C94.025 396.333 96.7213 396.954 99.2205 398.078C101.72 399.203 103.973 400.809 105.851 402.804C107.729 404.8 109.196 407.146 110.167 409.709C111.138 412.271 111.594 415 111.51 417.739Z" fill="white"/>
<path d="M86.5587 411.369C86.1899 410.888 85.6481 410.57 85.0484 410.483C84.4488 410.395 83.8387 410.545 83.3481 410.901C82.8734 411.221 82.4731 411.64 82.1743 412.128C81.8755 412.617 81.6853 413.164 81.6165 413.732C81.5634 413.153 81.3871 412.592 81.0993 412.086C80.8115 411.58 80.419 411.142 79.948 410.8C79.4744 410.42 78.8729 410.238 78.2681 410.289C77.6634 410.341 77.1017 410.624 76.6995 411.078C76.258 411.716 76.0688 412.495 76.1686 413.265C76.2112 414.037 76.46 414.783 76.8891 415.426C78.1727 417.032 79.7462 418.382 81.528 419.408C83.2844 418.479 84.843 417.217 86.1163 415.692C86.5809 415.076 86.8732 414.347 86.9632 413.581C87.1103 412.819 86.9659 412.029 86.5587 411.369Z" fill="#F18A31"/>
<path d="M104.911 411.887C104.543 411.405 104 411.088 103.399 411.003C102.799 410.918 102.189 411.072 101.701 411.432C101.223 411.748 100.82 412.166 100.52 412.655C100.221 413.144 100.033 413.693 99.9691 414.263C99.916 413.684 99.7397 413.122 99.4519 412.617C99.1642 412.111 98.7716 411.673 98.3006 411.331C97.8282 410.948 97.226 410.763 96.6203 410.815C96.0146 410.867 95.4526 411.152 95.0521 411.609C94.6084 412.246 94.419 413.026 94.5212 413.796C94.5575 414.569 94.8068 415.317 95.2417 415.957C96.5253 417.563 98.0989 418.913 99.8806 419.939C101.632 419.002 103.189 417.741 104.469 416.223C104.934 415.602 105.226 414.869 105.316 414.099C105.46 413.337 105.316 412.549 104.911 411.887Z" fill="#F18A31"/>
<path d="M97.4283 422.239C97.223 423.965 96.372 425.548 95.0465 426.672C93.721 427.795 92.0193 428.375 90.2835 428.295C88.5478 428.215 86.9067 427.481 85.6902 426.24C84.4738 425 83.7722 423.344 83.7266 421.607L97.4283 422.239Z" fill="white"/>
<path d="M481.078 551.003L478.55 537.655L454.598 541.902L458.074 561.911L459.578 561.747C466.264 560.951 493.402 556.805 497.574 554.618C502.288 552.178 481.078 551.003 481.078 551.003Z" fill="#F18A31"/>
<path d="M498.017 553.291C498.017 553.518 489.169 555.351 478.096 557.386C467.023 559.421 458.074 560.887 458.036 560.66C457.998 560.432 466.884 558.612 477.944 556.577C489.004 554.542 497.941 553.076 498.017 553.291Z" fill="#263238"/>
<path d="M482.001 553.632C481.786 553.556 481.824 552.823 482.216 552.039C482.608 551.256 483.151 550.775 483.341 550.889C483.531 551.003 483.341 551.66 482.949 552.393C482.557 553.126 482.216 553.72 482.001 553.632Z" fill="#263238"/>
<path d="M483.695 554.251C483.467 554.251 483.429 553.404 483.695 552.482C483.96 551.559 484.542 550.952 484.744 551.053C484.946 551.155 484.744 551.9 484.479 552.747C484.213 553.594 483.922 554.289 483.695 554.251Z" fill="#263238"/>
<path d="M465.152 559.244C465.064 559.333 464.647 559.042 464.015 558.549C463.231 557.897 462.384 557.325 461.487 556.843C460.673 556.397 459.76 556.162 458.832 556.16C458.086 556.16 457.631 556.4 457.568 556.286C457.505 556.173 457.897 555.793 458.756 555.579C459.868 555.357 461.021 555.532 462.017 556.071C462.978 556.588 463.835 557.278 464.545 558.107C465 558.688 465.266 559.168 465.152 559.244Z" fill="#263238"/>
<path d="M481.584 551.104C481.736 551.268 481.407 551.812 480.775 552.191C480.143 552.57 479.511 552.595 479.435 552.381C479.359 552.166 479.802 551.812 480.358 551.471C480.914 551.129 481.458 550.952 481.584 551.104Z" fill="#263238"/>
<path d="M481.003 549.903C481.003 550.131 480.459 550.434 479.65 550.598C478.841 550.763 478.172 550.699 478.146 550.472C478.121 550.244 478.728 549.941 479.486 549.789C480.245 549.638 480.94 549.688 481.003 549.903Z" fill="#263238"/>
<path d="M509.898 409.877C502.478 394.899 462.713 336.957 462.713 336.957L441.49 339.182V339.055L417.74 341.659L404.645 343.1L452.057 550.181L484.845 549.587L476.958 511.275C482.381 497.687 514.006 418.169 509.898 409.877ZM476.073 418.814L464.356 450.275L451.084 385.811L476.073 418.814Z" fill="#263238"/>
<path d="M449.769 241.31C449.466 239.149 450.629 230.162 450.629 230.162C450.629 230.162 458.883 229.555 459.654 221.415C460.425 213.275 460.513 194.428 460.513 194.428L445.762 186.617L428.863 198.574L424.489 209.95L430.253 224.082L430.076 228.759V239.465L449.769 241.31Z" fill="#FFBE9D"/>
<path d="M459.413 208.08C459.408 208.288 459.341 208.489 459.221 208.659C459.101 208.829 458.933 208.959 458.739 209.034C458.545 209.108 458.333 209.123 458.13 209.076C457.927 209.03 457.743 208.924 457.601 208.773C457.458 208.621 457.364 208.431 457.33 208.226C457.296 208.02 457.323 207.81 457.409 207.62C457.495 207.431 457.635 207.271 457.812 207.162C457.989 207.052 458.194 206.998 458.402 207.005C458.539 207.009 458.675 207.039 458.8 207.095C458.925 207.151 459.038 207.231 459.132 207.331C459.226 207.431 459.3 207.549 459.348 207.677C459.396 207.806 459.418 207.942 459.413 208.08Z" fill="#263238"/>
<path d="M459.489 206.98C459.35 207.119 458.592 206.436 457.479 206.335C456.367 206.234 455.495 206.752 455.381 206.601C455.267 206.449 455.47 206.285 455.849 206.045C456.358 205.738 456.952 205.605 457.543 205.665C458.13 205.715 458.684 205.954 459.123 206.348C459.451 206.664 459.552 206.929 459.489 206.98Z" fill="#263238"/>
<path d="M446.192 206.803C446.359 206.925 446.487 207.095 446.558 207.29C446.629 207.485 446.641 207.696 446.592 207.898C446.543 208.1 446.435 208.282 446.282 208.422C446.129 208.563 445.938 208.655 445.733 208.686C445.528 208.718 445.319 208.689 445.13 208.601C444.942 208.514 444.784 208.372 444.676 208.195C444.568 208.018 444.516 207.813 444.524 207.605C444.533 207.398 444.603 207.198 444.726 207.031C444.807 206.919 444.909 206.825 445.027 206.754C445.145 206.682 445.276 206.634 445.412 206.613C445.548 206.592 445.687 206.598 445.821 206.63C445.955 206.663 446.081 206.722 446.192 206.803Z" fill="#263238"/>
<path d="M447.014 206.588C446.875 206.715 446.129 206.032 445.004 205.944C443.879 205.855 443.019 206.361 442.906 206.196C442.792 206.032 442.994 205.893 443.373 205.653C443.882 205.345 444.475 205.208 445.067 205.261C445.659 205.314 446.218 205.558 446.66 205.956C446.988 206.26 447.089 206.525 447.014 206.588Z" fill="#263238"/>
<path d="M450.768 216.22C451.373 216.085 451.993 216.025 452.613 216.043C452.904 216.043 453.182 216.043 453.258 215.803C453.296 215.488 453.248 215.169 453.119 214.88C452.904 214.134 452.676 213.351 452.423 212.529C451.767 210.526 451.26 208.477 450.907 206.398C451.188 206.95 451.409 207.531 451.564 208.13C451.918 209.217 452.386 210.721 452.828 212.402C453.055 213.224 453.283 214.02 453.485 214.766C453.645 215.142 453.672 215.561 453.561 215.954C453.516 216.053 453.447 216.139 453.361 216.205C453.275 216.271 453.175 216.315 453.068 216.334C452.905 216.357 452.739 216.357 452.575 216.334C451.97 216.367 451.363 216.329 450.768 216.22Z" fill="#263238"/>
<path d="M447.027 217.155C445.902 216.372 450.098 219.14 452.399 219.203C451.969 219.769 451.359 220.171 450.67 220.344C449.98 220.516 449.252 220.448 448.607 220.151C446.268 219.051 447.027 217.155 447.027 217.155Z" fill="white"/>
<path d="M450.629 230.162C446.757 229.876 443.047 228.491 439.936 226.167C439.936 226.167 442.185 232.235 450.389 232.159L450.629 230.162Z" fill="#EB996E"/>
<path d="M431.214 212.226C431.214 212.226 431.1 212.314 430.898 212.428C430.613 212.561 430.288 212.584 429.988 212.491C429.521 212.235 429.132 211.858 428.86 211.4C428.589 210.942 428.446 210.42 428.446 209.887C428.389 209.292 428.467 208.691 428.673 208.13C428.725 207.91 428.831 207.706 428.981 207.536C429.131 207.366 429.321 207.236 429.533 207.157C429.668 207.109 429.816 207.111 429.95 207.162C430.084 207.213 430.196 207.309 430.266 207.435C430.367 207.625 430.329 207.776 430.367 207.776C430.405 207.776 430.519 207.65 430.443 207.372C430.394 207.202 430.286 207.054 430.139 206.955C430.041 206.887 429.93 206.839 429.812 206.815C429.695 206.791 429.574 206.791 429.457 206.816C429.175 206.889 428.917 207.033 428.707 207.235C428.497 207.436 428.342 207.688 428.256 207.966C427.997 208.589 427.893 209.266 427.953 209.938C427.96 210.559 428.15 211.165 428.498 211.679C428.846 212.194 429.338 212.595 429.912 212.832C430.1 212.876 430.296 212.876 430.485 212.832C430.673 212.789 430.849 212.702 430.999 212.579C431.214 212.352 431.239 212.238 431.214 212.226Z" fill="#EB996E"/>
<path d="M462.624 195.781C462.179 195.93 461.716 196.02 461.247 196.046C462.783 195.24 464.046 193.995 464.874 192.469C465.48 191.415 465.798 190.221 465.798 189.006C465.798 187.791 465.48 186.596 464.874 185.543C464.222 184.523 463.217 183.779 462.051 183.453C460.886 183.127 459.641 183.241 458.554 183.773C458.973 182.903 459.061 181.911 458.803 180.981C458.545 180.051 457.958 179.246 457.151 178.717C456.312 178.22 455.373 177.917 454.401 177.832C453.43 177.747 452.452 177.881 451.539 178.224C449.719 178.925 448.014 179.897 446.483 181.106C446.369 180.452 446.099 179.835 445.696 179.307C445.294 178.779 444.77 178.356 444.17 178.072C442.963 177.512 441.611 177.34 440.302 177.579C438.4 177.905 436.644 178.807 435.272 180.164C433.9 181.52 432.977 183.265 432.63 185.163C432.033 184.551 431.289 184.103 430.469 183.862C429.648 183.622 428.78 183.596 427.947 183.787C427.114 183.979 426.345 184.382 425.713 184.957C425.08 185.532 424.607 186.261 424.338 187.072C424.343 187.131 424.343 187.19 424.338 187.249C423.58 187.578 422.944 188.134 422.518 188.842C422.158 189.445 421.937 190.121 421.869 190.82C421.801 191.519 421.889 192.225 422.126 192.886C422.61 194.186 423.495 195.297 424.654 196.059C425.098 196.371 425.49 196.751 425.817 197.184C426.067 197.562 426.219 197.996 426.259 198.448C426.145 201.178 424.755 203.757 424.072 206.436C423.137 210.153 425.197 215.221 426.385 218.862C427.574 222.502 427.991 223.918 430.304 224.208L430.658 214.425C428.13 216.498 424.755 209.369 426.967 206.525C429.179 203.681 431.53 204.654 431.934 206.449C432.091 207.139 432.289 207.818 432.528 208.484H435.056L434.778 206.348C434.778 206.348 434.26 196.855 438.798 196.236C439.982 195.985 441.218 196.212 442.236 196.868C443.698 197.457 445.282 197.678 446.85 197.513C448.467 197.513 450.642 195.667 450.642 194.062C451.568 195.142 452.741 195.983 454.061 196.513C455.381 197.043 456.81 197.248 458.226 197.108C458.958 197.032 459.676 196.857 460.362 196.59C461.217 196.827 462.123 196.805 462.966 196.527C463.833 196.245 464.593 195.702 465.14 194.972C465.544 194.403 465.62 193.973 465.544 193.935C464.712 194.749 463.717 195.378 462.624 195.781ZM424.957 195.478C423.927 194.761 423.142 193.747 422.707 192.57C422.502 192 422.422 191.392 422.472 190.788C422.522 190.184 422.702 189.598 422.998 189.069C423.263 188.562 423.65 188.128 424.123 187.805C423.693 190.674 425.564 193.582 426.057 196.577C425.753 196.17 425.4 195.801 425.008 195.478H424.957Z" fill="#F18A31"/>
<path d="M506.08 207.65V223.943C506.08 225.716 506.785 227.417 508.039 228.671C509.293 229.925 510.993 230.629 512.767 230.629H540.992V239.945L546.048 231.034C547.546 230.925 548.947 230.253 549.969 229.154C550.992 228.054 551.56 226.607 551.559 225.106V207.65C551.557 206.765 551.38 205.89 551.038 205.074C550.696 204.259 550.195 203.519 549.565 202.898C548.935 202.278 548.187 201.788 547.367 201.458C546.546 201.128 545.668 200.964 544.784 200.976H512.767C510.995 200.976 509.297 201.679 508.043 202.93C506.789 204.181 506.083 205.879 506.08 207.65Z" fill="#F18A31"/>
<path d="M521.438 216.662C521.438 217.207 521.276 217.74 520.973 218.193C520.671 218.646 520.24 218.999 519.737 219.208C519.233 219.417 518.679 219.471 518.145 219.365C517.61 219.258 517.119 218.996 516.734 218.611C516.348 218.225 516.086 217.734 515.98 217.2C515.873 216.665 515.928 216.111 516.137 215.608C516.345 215.104 516.698 214.674 517.151 214.371C517.605 214.068 518.137 213.907 518.682 213.907C519.413 213.907 520.114 214.197 520.631 214.714C521.147 215.231 521.438 215.931 521.438 216.662Z" fill="white"/>
<path d="M531.904 216.662C531.904 217.207 531.742 217.74 531.439 218.193C531.136 218.646 530.706 218.999 530.203 219.208C529.699 219.417 529.145 219.471 528.611 219.365C528.076 219.258 527.585 218.996 527.2 218.611C526.814 218.225 526.552 217.734 526.446 217.2C526.339 216.665 526.394 216.111 526.602 215.608C526.811 215.104 527.164 214.674 527.617 214.371C528.07 214.068 528.603 213.907 529.148 213.907C529.879 213.907 530.58 214.197 531.097 214.714C531.613 215.231 531.904 215.931 531.904 216.662Z" fill="white"/>
<path d="M542.37 216.662C542.37 217.207 542.209 217.74 541.906 218.193C541.603 218.646 541.173 218.999 540.669 219.208C540.166 219.417 539.612 219.471 539.077 219.365C538.543 219.258 538.052 218.996 537.666 218.611C537.281 218.225 537.019 217.734 536.912 217.2C536.806 216.665 536.861 216.111 537.069 215.608C537.278 215.104 537.631 214.674 538.084 214.371C538.537 214.068 539.07 213.907 539.615 213.907C540.346 213.907 541.047 214.197 541.563 214.714C542.08 215.231 542.37 215.931 542.37 216.662Z" fill="white"/>
<path d="M528.352 256.074C527.783 254.81 491.886 286.498 484.731 287.585L463.8 260.308C463.8 260.308 459.451 253.419 450.11 241.614C444.094 234.03 427.472 235.572 423.099 244.862C415.679 260.624 415.426 281.518 409.688 315.09L404.834 343.568C404.834 343.568 412.001 342.721 411.976 342.784L462.94 337.488L464.204 303.36C474.316 313.573 477.4 315.709 482.646 314.9C495.829 312.853 541.953 271.368 541.953 271.368C541.953 271.368 528.908 257.363 528.352 256.074Z" fill="#455A64"/>
<path d="M535.734 277.17C534.813 276.61 533.964 275.939 533.206 275.173C529.263 271.671 525.826 267.638 522.993 263.19C522.354 262.3 521.832 261.331 521.438 260.308C522.122 261.128 522.743 261.999 523.297 262.912C524.459 264.543 526.115 266.767 528.1 269.093C530.084 271.419 532.006 273.403 533.434 274.819C534.264 275.538 535.034 276.324 535.734 277.17Z" fill="#263238"/>
<path d="M482.696 298.392C482.913 294.727 483.558 291.1 484.618 287.585C484.417 291.252 483.772 294.881 482.696 298.392Z" fill="#263238"/>
<path d="M487.272 297.267C486.531 295.782 485.992 294.205 485.667 292.578C485.124 291.012 484.797 289.379 484.693 287.724C485.427 289.212 485.967 290.788 486.299 292.414C486.834 293.982 487.161 295.614 487.272 297.267Z" fill="#263238"/>
<path opacity="0.2" d="M437.142 267.551L463.673 317.706L464.267 302.829L437.142 267.551Z" fill="black"/>
<path d="M435.423 265.111C435.886 265.581 436.309 266.088 436.687 266.628L439.847 270.863C442.514 274.452 446.243 279.369 450.427 284.767L461.171 298.531L464.394 302.728C464.809 303.226 465.181 303.759 465.506 304.321C465.047 303.88 464.624 303.402 464.242 302.892C463.37 301.831 462.232 300.465 460.855 298.822C458.023 295.359 454.143 290.556 449.959 285.171C445.775 279.786 442.097 274.806 439.518 271.153C438.254 269.32 437.205 267.829 436.523 266.78C436.106 266.258 435.738 265.7 435.423 265.111Z" fill="#263238"/>
<path d="M436.257 280.785C436.041 280.296 435.884 279.782 435.789 279.255C435.537 278.257 435.208 276.829 434.816 275.072L435.208 275.261L429.988 278.08L429.634 278.27L429.52 277.878C429.33 277.195 429.128 276.475 428.913 275.742L428.003 272.468L428.471 272.657L423.326 275.552L423.01 275.729V275.375C422.711 273.815 422.534 272.235 422.479 270.648C422.937 272.17 423.275 273.725 423.491 275.299L423.124 275.122L428.18 272.101L428.534 271.886L428.648 272.291C428.939 273.34 429.255 274.44 429.571 275.565C429.785 276.298 429.988 277.018 430.177 277.701L429.71 277.511L434.98 274.768L435.296 274.591L435.36 274.945C435.688 276.702 435.954 278.156 436.105 279.167C436.224 279.698 436.275 280.241 436.257 280.785Z" fill="#263238"/>
<path d="M442.488 252.433C441.984 252.24 441.508 251.981 441.073 251.662C440.2 251.119 438.974 250.323 437.483 249.337L437.887 249.198C437.356 250.879 436.762 252.8 436.118 254.86L435.991 255.252L435.637 255.05L433.716 253.925L430.784 252.206L431.251 252.016L429.57 257.679L429.469 258.02L429.191 257.805C427.894 256.889 426.668 255.875 425.525 254.772C426.907 255.554 428.23 256.437 429.482 257.414L429.103 257.54C429.545 255.871 430.063 253.95 430.632 251.852L430.746 251.447L431.1 251.662L434.045 253.356L435.966 254.481L435.498 254.658L437.344 249.008L437.47 248.667L437.761 248.869C439.215 249.905 440.403 250.765 441.224 251.397C441.687 251.689 442.111 252.037 442.488 252.433Z" fill="#263238"/>
<path d="M461.108 262.179C460.663 261.873 460.26 261.512 459.907 261.104C459.174 260.384 458.137 259.335 456.899 258.046H457.328C456.444 259.575 455.432 261.307 454.358 263.19L454.156 263.531L453.852 263.253L452.222 261.749L449.694 259.436L450.199 259.348C449.138 261.256 448.164 262.988 447.318 264.492L447.141 264.808L446.913 264.543C445.85 263.353 444.879 262.086 444.006 260.751C445.184 261.814 446.283 262.963 447.292 264.189H446.888L449.631 258.968L449.833 258.602L450.136 258.88L452.664 261.193L454.282 262.71H453.789L456.848 257.654L457.038 257.35L457.278 257.616C458.542 258.88 459.452 260.043 460.109 260.826C460.503 261.229 460.839 261.684 461.108 262.179Z" fill="#E0E0E0"/>
<path d="M510.201 294.095C510.201 294.095 509.771 293.69 509.139 292.894C508.507 292.098 507.61 290.922 506.548 289.481H506.978L503.388 294.209L503.135 294.525L502.883 294.221L501.442 292.515L499.28 289.911H499.786L496.285 294.651L496.07 294.942L495.88 294.651C494.976 293.347 494.169 291.978 493.466 290.556C494.502 291.745 495.444 293.013 496.285 294.348H495.88C496.879 292.945 498.016 291.314 499.268 289.519L499.508 289.191L499.773 289.507L501.96 292.11L503.388 293.817H502.883L506.561 289.165L506.788 288.875L506.991 289.165C508.014 290.644 508.836 291.858 509.405 292.717C509.72 293.146 509.987 293.608 510.201 294.095Z" fill="#263238"/>
<path d="M479.802 291.542C479.348 291.282 478.924 290.972 478.538 290.619C477.729 289.987 476.579 289.064 475.201 287.939L475.618 287.838L473.217 293.248L473.065 293.615L472.736 293.374L470.929 292.11L468.186 290.088L468.679 289.949C467.845 291.971 467.086 293.741 466.416 295.397L466.277 295.738L466.025 295.485C464.829 294.446 463.717 293.313 462.7 292.098C463.993 293.015 465.214 294.029 466.353 295.131L465.961 295.22C466.581 293.602 467.301 291.744 468.085 289.721L468.237 289.33L468.565 289.57L471.321 291.567L473.116 292.831L472.623 292.97L475.075 287.56L475.226 287.231L475.492 287.459C476.832 288.647 477.931 289.62 478.69 290.315C479.448 291.011 479.84 291.491 479.802 291.542Z" fill="#E0E0E0"/>
<path d="M523.296 284.4C523.124 283.893 523.014 283.366 522.968 282.833C522.816 281.809 522.614 280.305 522.386 278.586L522.765 278.8L517.305 281.151L516.938 281.303L516.862 280.911C516.736 280.203 516.597 279.47 516.458 278.725C516.243 277.562 516.041 276.449 515.851 275.375L516.294 275.602L510.922 278.08L510.593 278.219V277.865C510.438 276.286 510.408 274.696 510.505 273.112C510.819 274.671 511.009 276.251 511.073 277.84L510.732 277.625L516.053 275.097L516.42 274.907L516.496 275.324C516.698 276.399 516.913 277.511 517.128 278.661C517.267 279.42 517.393 280.153 517.52 280.848L517.077 280.608L522.576 278.371L522.917 278.232V278.586C523.081 280.368 523.208 281.834 523.271 282.858C523.338 283.369 523.346 283.887 523.296 284.4Z" fill="#E0E0E0"/>
<path d="M462.7 270.926C462.286 271.253 461.837 271.533 461.36 271.76C460.475 272.266 459.186 273.024 457.568 273.82L457.644 273.391L461.777 277.65L462.055 277.941L461.714 278.156L459.818 279.306L456.911 281.076V280.57L461.082 284.741L461.335 285.007L461.006 285.146C459.584 285.849 458.109 286.441 456.595 286.915C457.941 286.071 459.348 285.328 460.804 284.691L460.741 285.095L456.468 281.025L456.165 280.747L456.519 280.532L459.426 278.75L461.322 277.6V278.093C459.843 276.525 458.466 275.046 457.265 273.757L457.012 273.492L457.341 273.34C458.946 272.556 460.273 271.912 461.196 271.495C461.67 271.239 462.175 271.047 462.7 270.926Z" fill="#263238"/>
<path d="M485.895 298.392C485.481 298.736 485.026 299.029 484.542 299.265C483.657 299.77 482.368 300.529 480.75 301.312L480.814 300.895L484.959 305.155L485.238 305.433L484.896 305.648L483 306.811L480.08 308.568L480.144 308.075L484.315 312.246L484.568 312.499L484.239 312.638C482.814 313.338 481.339 313.934 479.828 314.42C481.199 313.577 482.631 312.838 484.113 312.208L484.037 312.612L479.777 308.542L479.474 308.252L479.828 308.037L482.722 306.267L484.631 305.104L484.568 305.61L480.51 301.274L480.257 301.009L480.573 300.857C482.179 300.061 483.506 299.429 484.441 298.999C484.897 298.735 485.386 298.531 485.895 298.392Z" fill="#E0E0E0"/>
<path d="M439.872 298.026C439.66 297.531 439.503 297.013 439.404 296.484C439.152 295.485 438.823 294.057 438.431 292.313L438.823 292.49L433.552 295.334L433.198 295.536L433.097 295.144C432.895 294.449 432.693 293.728 432.49 292.995C432.174 291.87 431.858 290.771 431.568 289.721L432.035 289.911L426.903 292.806L426.587 292.983V292.629C426.297 291.072 426.12 289.496 426.057 287.914C426.517 289.431 426.855 290.982 427.068 292.553L426.701 292.376L431.757 289.355L432.111 289.153L432.225 289.544C432.516 290.594 432.832 291.693 433.16 292.818L433.754 294.967L433.287 294.765L438.558 292.022L438.874 291.858L438.949 292.199C439.278 293.956 439.531 295.409 439.695 296.421C439.818 296.947 439.877 297.486 439.872 298.026Z" fill="#E0E0E0"/>
<path d="M460.93 309.958C460.715 309.464 460.558 308.946 460.462 308.416C460.21 307.417 459.881 305.989 459.489 304.245L459.881 304.422L454.673 307.266L454.319 307.468L454.206 307.076C454.003 306.381 453.801 305.66 453.599 304.94C453.283 303.802 452.979 302.703 452.676 301.654L453.144 301.843L448.012 304.738L447.696 304.915V304.573C447.406 303.012 447.228 301.433 447.165 299.846C447.624 301.363 447.962 302.914 448.176 304.485L447.81 304.321L452.866 301.3L453.22 301.085L453.333 301.489C453.637 302.538 453.94 303.625 454.269 304.75L454.863 306.899L454.408 306.697L459.666 303.954L459.995 303.79L460.058 304.131C460.386 305.888 460.639 307.342 460.804 308.353C460.917 308.88 460.96 309.42 460.93 309.958Z" fill="#263238"/>
<path d="M430.026 336.224C429.81 335.735 429.653 335.221 429.558 334.695C429.305 333.696 428.977 332.268 428.585 330.523L428.977 330.7L423.769 333.544L423.415 333.734L423.301 333.342C423.099 332.659 422.897 331.939 422.695 331.206L421.784 327.932L422.24 328.122L417.12 331.067L416.804 331.244V330.89C416.513 329.329 416.336 327.749 416.273 326.163C416.731 327.684 417.069 329.24 417.285 330.814L416.918 330.637L421.974 327.616L422.328 327.401L422.442 327.806C422.745 328.855 423.049 329.955 423.377 331.079L423.971 333.216L423.516 333.026L428.774 330.283L429.103 330.106L429.166 330.46C429.495 332.217 429.748 333.671 429.912 334.682C430.024 335.188 430.062 335.707 430.026 336.224Z" fill="#E0E0E0"/>
<path d="M430.632 308.656C430.153 308.411 429.707 308.105 429.305 307.746C428.483 307.139 427.32 306.229 425.93 305.104L426.347 305.003L424.059 310.489L423.908 310.856L423.579 310.615C422.985 310.211 422.378 309.768 421.759 309.351L419.003 307.367L419.484 307.228L417.284 312.701L417.145 313.03L416.892 312.789C415.69 311.754 414.562 310.635 413.518 309.44C414.829 310.335 416.067 311.332 417.221 312.423L416.829 312.524C417.423 310.906 418.093 309.035 418.89 307L419.029 306.608L419.37 306.849L422.176 308.795L423.983 310.059L423.503 310.186L425.892 304.75L426.044 304.422L426.309 304.649C427.662 305.825 428.774 306.785 429.532 307.481C429.944 307.828 430.313 308.223 430.632 308.656Z" fill="#263238"/>
<path d="M441.655 309.402C441.275 309.773 440.851 310.096 440.391 310.362C439.544 310.931 438.305 311.728 436.789 312.676V312.246L441.225 316.202L441.516 316.48L441.187 316.708L439.38 317.972L436.599 319.931V319.438L441.137 323.331L441.402 323.571L441.099 323.736C439.725 324.534 438.293 325.227 436.814 325.809C438.099 324.869 439.451 324.024 440.859 323.281V323.685L436.308 319.893L435.992 319.628L436.333 319.387L439.102 317.416L440.909 316.152V316.657L436.561 312.625L436.296 312.372L436.599 312.195C438.141 311.298 439.418 310.565 440.328 310.072C440.741 309.794 441.186 309.569 441.655 309.402Z" fill="#263238"/>
<path d="M453.776 318.022C453.539 318.505 453.242 318.955 452.891 319.362C452.284 320.196 451.387 321.359 450.287 322.775L450.186 322.358L455.697 324.57L456.064 324.709L455.836 325.05L454.572 326.883L452.626 329.676L452.474 329.183L457.972 331.307L458.314 331.446L458.074 331.699C457.061 332.922 455.954 334.063 454.762 335.112C455.653 333.8 456.637 332.553 457.707 331.383L457.808 331.775L452.259 329.79L451.867 329.651L452.107 329.31C452.714 328.412 453.371 327.477 454.029 326.504C454.471 325.884 454.888 325.24 455.293 324.684L455.432 325.164L449.984 322.851L449.655 322.712L449.883 322.434C451.033 321.056 451.981 319.906 452.664 319.173C453.346 318.439 453.776 317.984 453.776 318.022Z" fill="#E0E0E0"/>
<path d="M446.9 338.626C446.9 338.626 446.9 338.765 447.039 339.043C447.178 339.321 447.254 339.763 447.406 340.307C447.709 341.406 448.164 343.037 448.67 345.148C449.175 347.259 449.82 349.837 450.263 352.909C450.564 354.583 450.338 356.31 449.618 357.851C448.818 359.559 447.722 361.112 446.382 362.439V362.224C449.694 377.949 454.333 399.98 459.477 424.35C464.47 448.366 468.932 470.044 472.117 485.78C473.697 493.643 474.948 500.013 475.77 504.424C476.187 506.624 476.491 508.343 476.68 509.48C476.819 510.069 476.887 510.671 476.882 511.275C476.882 511.275 476.781 510.669 476.554 509.506C476.326 508.343 475.96 506.611 475.517 504.45C474.595 500.013 473.28 493.668 471.662 485.844C468.376 470.107 463.863 448.417 458.87 424.464C453.814 400.069 449.239 378.024 445.978 362.3V362.174L446.066 362.085C448.746 359.393 450.553 355.993 449.858 352.934C449.454 349.888 448.834 347.284 448.367 345.173C447.899 343.062 447.494 341.47 447.216 340.319L446.913 339.055C446.892 338.913 446.888 338.769 446.9 338.626Z" fill="#455A64"/>
<path d="M420.281 341.659C420.281 341.659 420.483 341.937 420.672 342.519C420.942 343.337 421.104 344.187 421.153 345.047C421.362 347.934 420.491 350.797 418.709 353.079C416.927 355.36 414.361 356.899 411.508 357.396C410.675 357.551 409.826 357.602 408.98 357.548C408.665 357.553 408.352 357.498 408.058 357.383C408.058 357.257 409.397 357.383 411.458 356.941C414.145 356.35 416.541 354.84 418.232 352.67C419.924 350.501 420.805 347.809 420.723 345.059C420.642 343.918 420.495 342.783 420.281 341.659Z" fill="#455A64"/>
<path d="M441.453 343.012C441.453 343.012 441.453 342.822 441.756 342.658C441.945 342.548 442.155 342.477 442.372 342.449C442.589 342.421 442.809 342.436 443.02 342.493C443.347 342.574 443.642 342.751 443.868 343.001C444.093 343.251 444.238 343.563 444.284 343.896C444.345 344.315 444.265 344.741 444.057 345.109C443.848 345.476 443.522 345.763 443.131 345.925C442.741 346.086 442.307 346.112 441.9 345.999C441.493 345.885 441.135 345.639 440.884 345.299C440.677 345.036 440.548 344.721 440.51 344.388C440.472 344.056 440.527 343.719 440.669 343.416C441.187 342.392 442.021 342.367 441.996 342.443C441.971 342.519 441.389 342.746 441.111 343.58C441.029 343.805 441.008 344.047 441.051 344.283C441.093 344.518 441.197 344.738 441.352 344.92C441.54 345.133 441.786 345.286 442.06 345.36C442.334 345.434 442.624 345.426 442.894 345.337C443.147 345.216 443.357 345.02 443.497 344.776C443.637 344.533 443.7 344.252 443.677 343.972C443.66 343.737 443.573 343.512 443.426 343.328C443.28 343.143 443.081 343.006 442.856 342.936C442.392 342.811 441.9 342.837 441.453 343.012Z" fill="#455A64"/>
<path d="M468.173 345.818C467.452 346.326 466.602 346.62 465.721 346.665C463.596 346.984 461.427 346.518 459.62 345.355C457.812 344.192 456.49 342.411 455.9 340.345C455.596 339.539 455.513 338.666 455.66 337.817C455.773 337.817 455.799 338.803 456.33 340.256C456.999 342.154 458.279 343.777 459.969 344.871C461.66 345.964 463.665 346.466 465.67 346.298C467.213 346.096 468.135 345.717 468.173 345.818Z" fill="#455A64"/>
<path d="M482.052 539.071C481.64 539.184 481.214 539.235 480.788 539.222L477.35 539.412L465.974 539.955L454.598 540.55L451.147 540.689C450.728 540.748 450.302 540.748 449.883 540.689C450.29 540.55 450.716 540.473 451.147 540.461C451.943 540.36 453.119 540.234 454.572 540.107C457.467 539.842 461.486 539.551 465.948 539.323C470.41 539.096 474.417 538.995 477.324 538.982C478.778 538.982 479.953 538.982 480.775 538.982C481.203 538.953 481.632 538.983 482.052 539.071Z" fill="#455A64"/>
<path d="M424.35 356.081C424.527 356.081 434.462 397.073 446.584 447.721C458.706 498.37 468.35 539.488 468.173 539.526C467.996 539.564 458.061 498.547 445.939 447.873C433.817 397.199 424.173 356.119 424.35 356.081Z" fill="#455A64"/>
<path d="M456.696 357.712C456.783 357.795 456.859 357.889 456.924 357.99L457.543 358.812L459.894 362.035L468.413 373.929L480.99 391.625L488.385 402.104C490.913 405.744 493.441 409.827 494.111 414.63C494.781 419.433 493.377 424.072 491.924 428.231C490.47 432.389 488.878 436.434 487.411 440.239C484.454 447.823 481.648 454.673 479.208 460.349C476.769 466.024 474.708 470.587 473.267 473.722L471.561 477.324L471.106 478.247C470.992 478.449 470.941 478.563 470.929 478.55C470.95 478.436 470.989 478.325 471.043 478.222C471.144 477.969 471.283 477.653 471.447 477.261L473.027 473.621C474.405 470.448 476.402 465.86 478.778 460.172C481.155 454.484 483.923 447.658 486.843 440.024C488.296 436.232 489.8 432.199 491.305 428.016C492.809 423.832 494.123 419.345 493.466 414.718C492.809 410.092 490.319 406.098 487.854 402.47L480.497 391.979L468.034 374.144L459.679 362.123L457.442 358.837C457.202 358.483 457.012 358.205 456.873 357.977C456.734 357.75 456.684 357.712 456.696 357.712Z" fill="#455A64"/>
<path d="M520.933 257.363L549.158 236.76L550.548 238.972L522.5 259.828L520.933 257.363Z" fill="#263238"/>
<path d="M527.91 256.731C527.91 256.731 531.702 246.872 532.549 244.774C533.396 242.675 534.837 239.022 535.38 238.947C535.924 238.871 537.908 239.174 535.317 245.443C532.726 251.713 538.363 247.883 538.363 247.883L543.799 243.99C543.799 243.99 548.096 256.832 545.657 260.7C543.737 263.595 541.58 266.326 539.21 268.865L527.91 256.731Z" fill="#FFBE9D"/>
<path d="M169.692 420.154C170.058 418.017 169.249 410.206 169.249 410.206C169.249 410.206 161.059 409.334 160.566 401.219C160.073 393.104 160.566 374.372 160.566 374.372L175.481 367.078L191.913 379.503L189.385 420.116L169.692 420.154Z" fill="#B78876"/>
<path d="M162.828 387.947C162.828 388.222 162.937 388.485 163.132 388.68C163.326 388.874 163.59 388.983 163.865 388.983C164.139 388.983 164.403 388.874 164.598 388.68C164.792 388.485 164.901 388.222 164.901 387.947C164.901 387.811 164.874 387.676 164.822 387.55C164.77 387.425 164.694 387.31 164.598 387.214C164.501 387.118 164.387 387.041 164.261 386.989C164.135 386.937 164.001 386.91 163.865 386.91C163.728 386.91 163.594 386.937 163.468 386.989C163.342 387.041 163.228 387.118 163.132 387.214C163.035 387.31 162.959 387.425 162.907 387.55C162.855 387.676 162.828 387.811 162.828 387.947Z" fill="#263238"/>
<path d="M161.312 387.201C161.438 387.328 162.209 386.683 163.321 386.62C164.434 386.557 165.281 387.1 165.407 386.948C165.533 386.797 165.318 386.632 164.952 386.38C164.458 386.056 163.873 385.9 163.283 385.937C162.694 385.978 162.132 386.203 161.678 386.582C161.35 386.873 161.236 387.138 161.312 387.201Z" fill="#263238"/>
<path d="M175.961 388.794C176.534 388.794 176.998 388.33 176.998 387.757C176.998 387.185 176.534 386.721 175.961 386.721C175.389 386.721 174.925 387.185 174.925 387.757C174.925 388.33 175.389 388.794 175.961 388.794Z" fill="#263238"/>
<path d="M173.396 386.999C173.535 387.138 174.293 386.481 175.418 386.43C176.543 386.38 177.377 386.91 177.491 386.759C177.605 386.607 177.415 386.443 177.049 386.19C176.554 385.868 175.969 385.713 175.38 385.748C174.789 385.783 174.226 386.009 173.775 386.392C173.434 386.683 173.332 386.948 173.396 386.999Z" fill="#263238"/>
<path d="M169.553 396.34C168.955 396.184 168.339 396.108 167.72 396.112C167.442 396.112 167.164 396.049 167.101 395.847C167.066 395.534 167.123 395.218 167.265 394.937L168.024 392.624C168.748 390.657 169.318 388.637 169.73 386.582C168.881 388.497 168.167 390.469 167.594 392.485C167.329 393.294 167.088 394.077 166.861 394.81C166.687 395.177 166.647 395.593 166.747 395.986C166.79 396.086 166.856 396.175 166.939 396.246C167.022 396.316 167.121 396.365 167.227 396.39C167.387 396.414 167.549 396.414 167.708 396.39C168.323 396.448 168.942 396.431 169.553 396.34Z" fill="#263238"/>
<path d="M173.257 397.402C171.62 398.438 169.762 399.074 167.834 399.26C168.245 399.828 168.835 400.241 169.509 400.431C170.184 400.621 170.903 400.578 171.55 400.309C173.939 399.31 173.257 397.402 173.257 397.402Z" fill="white"/>
<path d="M169.249 410.206C173.109 410.045 176.841 408.781 180.006 406.566C180.006 406.566 177.566 412.532 169.426 412.203L169.249 410.206Z" fill="#A36957"/>
<path d="M202.67 385.52C202.67 385.52 205.982 404.24 190.169 407.615L190.637 385.065L202.67 385.52Z" fill="#263238"/>
<path d="M202.151 381.374C201.164 377.368 199.319 373.624 196.741 370.403C199.017 371.351 200.533 372.299 200.849 371.995C201.165 371.692 200.584 371.123 199.585 370.276C198.289 369.215 196.806 368.405 195.212 367.887L194.466 367.685C195.51 367.269 196.462 366.655 197.272 365.877C198.242 364.969 198.912 363.788 199.195 362.49C199.477 361.191 199.357 359.838 198.852 358.609C198.281 357.565 197.413 356.713 196.358 356.161C195.303 355.61 194.108 355.384 192.924 355.513C191.748 355.679 190.628 356.119 189.653 356.797C188.678 357.476 187.876 358.373 187.312 359.418C187.04 359.919 186.815 360.443 186.642 360.986C186.68 360.088 186.773 359.193 186.92 358.306C187.426 355.184 188.589 352.846 188.399 352.745C187.2 354.332 186.453 356.215 186.238 358.192C186.238 358.496 186.162 358.786 186.124 359.077C185.876 358.269 185.572 357.479 185.214 356.713C184.443 355.083 183.71 354.185 183.495 354.325C183.052 354.539 184.493 357.965 185.087 362.591C183.665 362.118 182.185 361.841 180.689 361.769C177.933 361.769 173.357 360.505 166.886 365.701C164.695 367.099 162.8 368.916 161.312 371.047C159.173 374.177 157.967 377.851 157.836 381.64C157.796 382.777 157.868 383.916 158.05 385.04C158.089 385.455 158.196 385.86 158.366 386.241C158.493 386.241 158.126 384.484 158.366 381.665C158.509 379.575 158.973 377.52 159.744 375.572C158.781 378.943 158.995 382.54 160.351 385.773L174.824 383.51C173.888 380.338 174.571 375.307 175.013 372.842C177.541 384.66 187.716 390.336 187.716 390.336L202.948 387.947C202.733 386.569 202.48 382.613 202.151 381.374Z" fill="#263238"/>
<path d="M237.189 562.404C237.657 562.632 274.996 569.988 273.618 564.932C272.24 559.876 237.518 551.938 237.518 551.938L237.189 562.404Z" fill="#F18A31"/>
<path d="M254.165 559.105C254.342 559.105 254.608 559.965 254.595 561.09C254.582 562.215 254.317 563.099 254.14 563.074C253.963 563.049 253.925 562.164 253.938 561.09C253.95 560.015 253.988 559.118 254.165 559.105Z" fill="#263238"/>
<path d="M252.18 558.423C252.345 558.423 252.673 559.421 252.547 560.736C252.421 562.05 251.953 563.011 251.789 562.948C251.624 562.885 251.789 561.899 251.89 560.673C251.991 559.446 251.991 558.448 252.18 558.423Z" fill="#263238"/>
<path d="M249.766 558.22C249.943 558.22 250.196 559.206 250.221 560.47C250.246 561.734 250.031 562.745 249.854 562.733C249.677 562.72 249.589 561.722 249.564 560.483C249.538 559.244 249.589 558.233 249.766 558.22Z" fill="#263238"/>
<path d="M245.216 554.567C245.412 554.557 245.608 554.579 245.797 554.631C246.176 554.631 246.732 554.808 247.44 554.972C248.869 555.275 250.929 555.768 253.444 556.463C255.96 557.159 258.943 558.031 262.204 559.143C263.834 559.699 265.566 560.268 267.26 561.014C269.096 561.754 270.783 562.821 272.24 564.161C272.467 564.343 272.653 564.571 272.783 564.831C272.864 565.015 272.876 565.221 272.818 565.414C272.76 565.606 272.636 565.771 272.467 565.88C271.981 566.133 271.435 566.251 270.887 566.221C269.914 566.297 268.954 566.335 268.018 566.361C266.135 566.361 264.315 566.361 262.583 566.221C259.132 566.007 256.048 565.577 253.47 565.172C250.891 564.768 248.818 564.363 247.39 564.073L245.747 563.731C245.55 563.705 245.358 563.649 245.178 563.567C245.933 563.592 246.685 563.677 247.428 563.82L253.533 564.705C256.061 565.059 259.195 565.438 262.621 565.627C264.34 565.716 266.135 565.766 268.006 565.716C268.928 565.716 269.889 565.653 270.837 565.577C271.272 565.602 271.706 565.519 272.101 565.337C272.215 565.248 272.227 565.198 272.189 565.084C272.084 564.912 271.952 564.759 271.798 564.629C270.394 563.344 268.771 562.321 267.007 561.608C265.313 560.875 263.594 560.344 261.951 559.712C258.703 558.587 255.745 557.652 253.255 556.906C250.765 556.16 248.717 555.642 247.314 555.212C246.601 555.043 245.9 554.828 245.216 554.567Z" fill="#263238"/>
<path d="M265.048 560.116C265.225 560.18 264.858 561.595 265.048 563.34C265.237 565.084 265.718 566.436 265.541 566.525C264.867 565.608 264.469 564.519 264.39 563.385C264.312 562.25 264.557 561.117 265.098 560.116H265.048Z" fill="#263238"/>
<path d="M113.76 555.01C113.242 555.01 75.5618 560.205 78.4816 564.439C81.4015 568.674 116.844 564.957 116.844 564.957L113.76 555.01Z" fill="#F18A31"/>
<path d="M98.718 563.668C98.5664 563.744 98.0228 562.986 97.6689 561.924C97.315 560.862 97.3276 559.952 97.454 559.952C97.5804 559.952 97.947 560.748 98.2883 561.772C98.6296 562.796 98.8824 563.58 98.718 563.668Z" fill="#263238"/>
<path d="M100.829 563.656C100.677 563.744 100.033 562.872 99.7167 561.595C99.4007 560.319 99.5398 559.244 99.7167 559.244C99.8937 559.244 100.058 560.243 100.361 561.431C100.665 562.619 100.993 563.567 100.829 563.656Z" fill="#263238"/>
<path d="M103.168 563.061C103.004 563.137 102.447 562.265 102.005 561.077C101.563 559.889 101.436 558.865 101.613 558.814C101.79 558.764 102.195 559.699 102.624 560.849C103.054 562 103.332 562.986 103.168 563.061Z" fill="#263238"/>
<path d="M108.703 565.008C108.521 565.079 108.33 565.121 108.135 565.134L106.466 565.349C105.013 565.526 102.914 565.729 100.31 565.893C97.7066 566.057 94.5972 566.196 91.1464 566.221C89.4148 566.221 87.6072 566.221 85.7112 566.108C83.7358 566.022 81.7939 565.567 79.9853 564.768C79.7077 564.67 79.4537 564.515 79.2396 564.313C79.1143 564.159 79.0459 563.967 79.0459 563.769C79.0459 563.571 79.1143 563.379 79.2396 563.226C79.6117 562.822 80.0886 562.528 80.6173 562.379C81.5148 561.987 82.3996 561.646 83.2844 561.305C85.054 560.66 86.7983 560.129 88.4668 559.661C91.8037 558.739 94.8626 558.145 97.4285 557.689C99.9944 557.234 102.093 556.931 103.534 556.741L105.202 556.527C105.395 556.496 105.591 556.496 105.784 556.527C105.06 556.749 104.321 556.914 103.572 557.02L97.517 558.17C94.989 558.688 91.9301 559.333 88.669 560.268C87.0132 560.748 85.2941 561.279 83.613 561.937C82.7408 562.278 81.856 562.619 80.9712 562.998C80.559 563.117 80.1817 563.334 79.8716 563.63C79.7957 563.757 79.7957 563.795 79.8716 563.896C80.0297 564.027 80.2093 564.129 80.4024 564.199C82.1431 564.951 84.0064 565.38 85.9008 565.463C87.7463 565.615 89.5664 565.602 91.2855 565.615C94.7236 565.615 97.8204 565.539 100.424 565.438C103.028 565.337 105.126 565.185 106.58 565.097C107.285 565.02 107.994 564.99 108.703 565.008Z" fill="#263238"/>
<path d="M88.1132 566.272C87.911 566.272 87.8099 564.818 87.102 563.213C86.3942 561.608 85.4588 560.496 85.5979 560.369C85.7369 560.243 86.9756 561.191 87.7087 562.897C88.2719 563.928 88.4167 565.137 88.1132 566.272Z" fill="#263238"/>
<path d="M230.591 509.266H211.416L140.632 511.098L120.408 508.482C117.261 507.787 115.188 507.496 114.518 507.711C111.801 508.843 109.421 510.654 107.604 512.969C99.8933 522.171 104.747 536.353 116.351 539.513L127.246 542.471L103.407 550.131L111.459 572.984C111.459 572.984 147.053 565.286 181.573 557.159L236.81 572.099L244.773 546.453L235.407 543.406C241.284 541.611 245.001 540.196 245.519 539.336C248.995 533.952 255.15 508.912 230.502 509.291" fill="#455A64"/>
<path opacity="0.2" d="M235.104 543.495L194.049 560.496L181.637 557.133L235.104 543.495Z" fill="black"/>
<path opacity="0.2" d="M127.424 511.187L179.981 526.241L220.012 512.59L127.424 511.187Z" fill="black"/>
<path d="M119.941 571.328C119.269 570.288 118.706 569.183 118.26 568.029C117.324 565.943 116.111 562.973 114.923 559.737C113.734 556.501 112.761 553.417 112.142 551.243C111.742 550.073 111.458 548.866 111.295 547.641C111.81 548.759 112.233 549.917 112.559 551.104C113.292 553.265 114.316 556.249 115.504 559.51C116.692 562.771 117.842 565.716 118.664 567.839C119.178 568.968 119.605 570.134 119.941 571.328Z" fill="#263238"/>
<path d="M246.644 517.785C246.541 517.847 246.431 517.893 246.315 517.924L245.329 518.291L241.537 519.63L227.519 524.396C215.625 528.365 199.168 533.737 180.928 539.463C162.689 545.189 146.105 550.181 134.085 553.721L119.827 557.841L115.946 558.916L114.922 559.181C114.808 559.217 114.689 559.239 114.568 559.244L114.91 559.118L115.908 558.789L119.7 557.588L133.895 553.265C145.89 549.625 162.436 544.557 180.663 538.831C198.89 533.105 215.372 527.808 227.292 523.953L241.423 519.39L245.279 518.126L246.277 517.823C246.397 517.792 246.52 517.78 246.644 517.785Z" fill="#263238"/>
<path d="M208.371 516.862C208.116 517.008 207.844 517.123 207.562 517.204L205.211 518.063C203.163 518.796 200.155 519.833 196.489 521.084C189.107 523.612 178.882 526.949 167.569 530.577C156.256 534.204 145.967 537.402 138.497 539.652C134.705 540.777 131.734 541.662 129.649 542.256L127.235 542.926C126.953 543.009 126.666 543.072 126.375 543.116C126.636 542.979 126.911 542.873 127.197 542.8L129.573 542.016L138.421 539.21L167.417 529.957L196.388 520.642L205.173 517.823L207.574 517.077C207.831 516.977 208.098 516.905 208.371 516.862Z" fill="#263238"/>
<path d="M179.716 526.153C179.716 526.33 167.923 523.119 153.475 518.986C139.028 514.853 127.373 511.402 127.424 511.187C127.475 510.972 139.217 514.221 153.652 518.354C168.087 522.487 179.766 525.976 179.716 526.153Z" fill="#263238"/>
<path d="M237.114 544.708C235.819 548.974 234.308 553.172 232.589 557.285C229.922 564.161 227.621 569.672 227.457 569.609C228.749 565.346 230.26 561.153 231.982 557.045C234.649 550.169 236.95 544.645 237.114 544.708Z" fill="#263238"/>
<path d="M232.184 555.301C228.697 554.699 225.249 553.893 221.857 552.886C218.427 552.076 215.05 551.054 211.745 549.827C215.232 550.426 218.681 551.232 222.072 552.242C225.502 553.052 228.879 554.074 232.184 555.301Z" fill="#263238"/>
<path d="M153.563 534.343C152.901 534.264 152.246 534.133 151.604 533.952L146.321 532.688C141.871 531.55 135.716 530.008 129.004 527.985C123.25 526.295 117.614 524.23 112.129 521.805C110.044 520.844 108.337 520.01 107.25 519.39C106.645 519.106 106.07 518.763 105.531 518.366C106.162 518.584 106.775 518.85 107.364 519.163C108.527 519.706 110.208 520.427 112.319 521.375C117.834 523.666 123.466 525.662 129.193 527.353C135.893 529.376 142.023 530.981 146.447 532.233L151.667 533.737C152.318 533.875 152.953 534.078 153.563 534.343Z" fill="#263238"/>
<path d="M192.419 419.029H190.864L190.636 413.644L169.287 414.908C169.287 414.908 169.502 417.436 169.49 419.193C156.344 420.457 135.273 427.207 134.768 456.797L151.629 457.189C150.201 470.764 150.365 478.866 148.988 483.96C146.637 492.379 139.192 510.15 140.683 511.048C142.175 511.945 211.366 513.222 214.665 511.427C217.964 509.632 211.96 486.438 210.456 480.143C209.508 476.124 209.306 466.922 209.28 459.805L228.645 458.933C228.645 458.933 230.048 418.915 192.419 419.029Z" fill="#F18A31"/>
<path d="M190.75 418.814C189.73 419.115 188.678 419.293 187.615 419.345C185.656 419.572 182.951 419.787 179.956 419.85C176.96 419.913 174.255 419.85 172.296 419.673C171.231 419.656 170.171 419.52 169.136 419.269C170.189 419.144 171.251 419.123 172.308 419.206C174.268 419.206 176.96 419.206 179.892 419.206C182.825 419.206 185.568 419.003 187.476 418.902C188.562 418.768 189.659 418.738 190.75 418.814Z" fill="#263238"/>
<path d="M173.168 414.731C173.357 414.731 173.496 415.768 173.496 417.044C173.496 418.321 173.357 419.37 173.168 419.37C172.978 419.37 172.839 418.334 172.839 417.044C172.839 415.755 172.927 414.731 173.168 414.731Z" fill="#263238"/>
<path d="M178.818 414.327C178.994 414.327 179.171 415.464 179.209 416.855C179.325 417.705 179.238 418.572 178.957 419.383C178.767 419.383 178.59 418.245 178.552 416.855C178.432 416.003 178.524 415.135 178.818 414.327Z" fill="#263238"/>
<path d="M184.708 414.124C184.885 414.124 185.138 415.237 185.163 416.652C185.188 418.068 184.999 419.18 184.809 419.18C184.533 418.368 184.43 417.507 184.506 416.652C184.543 415.287 184.543 414.137 184.708 414.124Z" fill="#263238"/>
<path d="M188.981 413.922C189.17 413.922 189.297 415.034 189.474 416.387C189.651 417.739 189.79 418.852 189.613 418.915C189.436 418.978 188.993 417.891 188.829 416.475C188.665 415.06 188.804 413.909 188.981 413.922Z" fill="#263238"/>
<path d="M154.296 456.873C153.956 454.784 153.829 452.667 153.917 450.553C153.783 448.442 153.876 446.323 154.195 444.233C154.529 446.322 154.656 448.439 154.574 450.553C154.692 452.664 154.599 454.781 154.296 456.873Z" fill="#263238"/>
<path d="M208.56 458.984C208.048 456.741 207.744 454.456 207.65 452.158C207.345 449.875 207.265 447.568 207.41 445.269C208.221 449.795 208.606 454.386 208.56 458.984Z" fill="#263238"/>
<path d="M154.296 456.873C153.333 457.001 152.359 457.03 151.389 456.961H144.425H137.447C136.482 457.03 135.512 457.001 134.553 456.873C135.494 456.631 136.462 456.508 137.435 456.506C139.217 456.367 141.694 456.266 144.425 456.279C147.155 456.291 149.632 456.38 151.414 456.519C152.386 456.522 153.353 456.641 154.296 456.873Z" fill="#263238"/>
<path d="M228.607 458.984C225.184 459.317 221.743 459.426 218.305 459.312C214.864 459.427 211.419 459.317 207.991 458.984C211.419 458.658 214.864 458.548 218.305 458.655C221.743 458.549 225.183 458.658 228.607 458.984Z" fill="#263238"/>
<path d="M227.76 459.148C227.76 459.148 232.816 506.333 218.356 510.972C203.896 515.611 175.38 493.643 175.38 493.643L183.596 477.008C183.596 477.008 202.556 490.179 206.651 487.209C210.747 484.238 208.61 459.148 208.61 459.148H227.76Z" fill="#B78876"/>
<path d="M135.007 456.873C135.007 456.873 129.863 503.578 144.31 508.229C158.758 512.881 187.286 490.887 187.286 490.887L179.058 474.253C179.058 474.253 159.984 486.45 156.028 483.366C153.74 481.571 153.677 457.113 153.677 457.113C146.952 456.822 140.721 456.532 135.007 456.873Z" fill="#B78876"/>
<path d="M218.761 466.606L209.167 513.626C209.167 513.626 150.214 513.171 149.607 512.994C149 512.817 143.287 466.606 143.287 466.606H218.761Z" fill="#263238"/>
<path d="M176.416 490.432C176.368 491.14 176.534 491.847 176.893 492.459C177.251 493.072 177.785 493.563 178.426 493.868C179.067 494.173 179.785 494.278 180.487 494.17C181.189 494.062 181.841 493.745 182.361 493.261C182.88 492.777 183.242 492.148 183.399 491.456C183.556 490.764 183.501 490.04 183.242 489.379C182.983 488.718 182.531 488.151 181.944 487.75C181.358 487.35 180.665 487.135 179.956 487.133C179.05 487.106 178.17 487.437 177.507 488.055C176.845 488.672 176.453 489.527 176.416 490.432Z" fill="white"/>
<path d="M188.803 387.264C189.337 386.934 189.945 386.742 190.571 386.704C191.198 386.667 191.824 386.785 192.393 387.049C193.12 387.636 193.599 388.476 193.733 389.401C193.903 390.149 193.894 390.927 193.707 391.671C193.52 392.416 193.161 393.106 192.659 393.685C192.134 394.245 191.434 394.607 190.674 394.711C189.914 394.814 189.142 394.653 188.487 394.254" fill="#B78876"/>
<path d="M190.32 392.965C190.32 392.864 190.725 392.801 191.192 392.447C191.501 392.247 191.75 391.968 191.915 391.639C192.079 391.31 192.153 390.943 192.128 390.576C192.092 390.214 191.962 389.867 191.751 389.57C191.541 389.273 191.257 389.036 190.927 388.882C190.396 388.629 189.991 388.642 189.979 388.541C189.966 388.44 190.383 388.25 191.091 388.427C191.553 388.564 191.964 388.837 192.27 389.209C192.576 389.582 192.764 390.037 192.809 390.517C192.853 390.997 192.754 391.48 192.522 391.902C192.29 392.325 191.937 392.669 191.508 392.889C190.775 393.167 190.32 393.104 190.32 392.965Z" fill="#A36957"/>
</svg>
